<svg xmlns="http://www.w3.org/2000/svg" viewBox="4 4 92 92">
	<path d="M 30 5 L 70 5 L 95 30 L 95 70 L 70 95 L 30 95 L 5 70 L 5 30 L 30 5 Z" fill="#Ff0000" stroke="#000000" stroke-width="0" />
	<path d="M 33 10 L 67 10 L 90 33 L 90 67 L 67 90 L 33 90 L 10 67 L 10 33 L 33 10 Z" fill="#FFFFFF" stroke="#000000" stroke-width="0" />
	<path d="M 12 53 L 12 65 L 24 65 L 24 77 L 36 77 L 36 65 L 48 65 L 48 53 L 36 53 L 36 41 L 24 41 L 24 53 L 12 53" stroke-width="0" fill="#FF0000"/>
	<path d="M 71 25 L 71 75 L 61 75 L 61 35 L 52 44 L 42 44 L 59 25 L 71 25" stroke-width="0" fill="#000000"/>
</svg>