<svg xmlns="http://www.w3.org/2000/svg" viewBox="4 4 92 92">
	<path d="M 30 5 L 70 5 L 95 30 L 95 70 L 70 95 L 30 95 L 5 70 L 5 30 L 30 5 Z" fill="#Ff0000" stroke="#000000" stroke-width="0" />
	<path d="M 33 10 L 67 10 L 90 33 L 90 67 L 67 90 L 33 90 L 10 67 L 10 33 L 33 10 Z" fill="#FFFFFF" stroke="#000000" stroke-width="0" />
	<path d="M 20 40 L 20 60 L 40 60 L 40 80 L 60 80 L 60 60 L 80 60 L 80 40 L 60 40 L 60 20 L 40 20 L 40 40 L 20 40 Z" stroke="#FF0000" stroke-width="0" fill="#FF0000"/>
</svg>